<svg xmlns="http://www.w3.org/2000/svg" viewBox="0 0 250 350">
  <defs>
    <linearGradient id="bg" x1="0" y1="0" x2="0" y2="1">
      <stop offset="0" stop-color="#6b1a2b"/>
      <stop offset="0.55" stop-color="#4d1220"/>
      <stop offset="1" stop-color="#2e0912"/>
    </linearGradient>
    <linearGradient id="gold" x1="0" y1="0" x2="1" y2="1">
      <stop offset="0" stop-color="#f4e3a7"/>
      <stop offset="0.5" stop-color="#d4af37"/>
      <stop offset="1" stop-color="#9a7a1c"/>
    </linearGradient>
    <radialGradient id="sheen" cx="0.5" cy="0.38" r="0.75">
      <stop offset="0" stop-color="#ffffff" stop-opacity="0.10"/>
      <stop offset="1" stop-color="#ffffff" stop-opacity="0"/>
    </radialGradient>
    <pattern id="lattice" width="28" height="28" patternUnits="userSpaceOnUse">
      <path d="M14 3.5 A10.5 10.5 0 0 1 24.5 14 A10.5 10.5 0 0 1 14 24.5 A10.5 10.5 0 0 1 3.5 14 A10.5 10.5 0 0 1 14 3.5 Z"
            fill="none" stroke="#d4af37" stroke-opacity="0.14" stroke-width="1"/>
      <circle cx="14" cy="14" r="1.4" fill="#d4af37" fill-opacity="0.20"/>
      <circle cx="0" cy="0" r="1.1" fill="#d4af37" fill-opacity="0.16"/>
      <circle cx="28" cy="0" r="1.1" fill="#d4af37" fill-opacity="0.16"/>
      <circle cx="0" cy="28" r="1.1" fill="#d4af37" fill-opacity="0.16"/>
      <circle cx="28" cy="28" r="1.1" fill="#d4af37" fill-opacity="0.16"/>
    </pattern>
  </defs>

  <rect width="250" height="350" rx="14" fill="url(#bg)"/>
  <rect x="13" y="13" width="224" height="324" rx="8" fill="url(#lattice)"/>
  <rect width="250" height="350" rx="14" fill="url(#sheen)"/>

  <rect x="7" y="7" width="236" height="336" rx="11" fill="none" stroke="url(#gold)" stroke-width="2.5"/>
  <rect x="13" y="13" width="224" height="324" rx="8" fill="none" stroke="#d4af37" stroke-opacity="0.75" stroke-width="1"/>

  <g fill="none" stroke="url(#gold)" stroke-width="1.6" stroke-linecap="round">
    <path d="M20 44 Q20 20 44 20 M24 58 Q24 24 58 24"/>
    <path d="M230 44 Q230 20 206 20 M226 58 Q226 24 192 24"/>
    <path d="M20 306 Q20 330 44 330 M24 292 Q24 326 58 326"/>
    <path d="M230 306 Q230 330 206 330 M226 292 Q226 326 192 326"/>
  </g>

  <g transform="translate(125 175)">
    <circle r="62" fill="#380b16" stroke="url(#gold)" stroke-width="2.5"/>
    <circle r="55" fill="none" stroke="#d4af37" stroke-opacity="0.8" stroke-width="1"/>
    <circle r="66.5" fill="none" stroke="#d4af37" stroke-opacity="0.45" stroke-width="1" stroke-dasharray="2 5"/>

    <g transform="translate(0 -30)" fill="url(#gold)" stroke="#7a5c12" stroke-width="0.8">
      <path d="M-19 3 L-19 -12 L-9.5 -3.5 L0 -16 L9.5 -3.5 L19 -12 L19 3 Z"/>
      <rect x="-19" y="4.5" width="38" height="4.5" rx="2"/>
      <circle cx="-19" cy="-14" r="2.2"/>
      <circle cx="0" cy="-18" r="2.2"/>
      <circle cx="19" cy="-14" r="2.2"/>
    </g>

    <g transform="translate(0 16)" fill="url(#gold)" stroke="#7a5c12" stroke-width="0.8">
      <path d="M0 -26 C 11 -13 23 -7 23 6 C 23 17 12 22 3.5 16 C 5 24 8 29 11.5 32 L -11.5 32 C -8 29 -5 24 -3.5 16 C -12 22 -23 17 -23 6 C -23 -7 -11 -13 0 -26 Z"/>
    </g>
  </g>
</svg>
